<?xml version="1.0" standalone="no"?>
<!DOCTYPE svg PUBLIC "-//W3C//DTD SVG 20010904//EN"
 "http://www.w3.org/TR/2001/REC-SVG-20010904/DTD/svg10.dtd">
<svg version="1.0" xmlns="http://www.w3.org/2000/svg"
 width="225.000000pt" height="225.000000pt" viewBox="0 0 225.000000 225.000000"
 preserveAspectRatio="xMidYMid meet">

<g transform="translate(0.000000,225.000000) scale(0.100000,-0.100000)"
fill="#000000" stroke="none">
<path d="M560 1715 c-268 -50 -469 -279 -487 -556 -19 -282 160 -530 443 -615
80 -24 238 -24 319 0 103 31 255 120 255 150 0 6 -38 47 -85 89 l-85 78 -33
-25 c-155 -118 -386 -85 -502 72 -40 54 -75 155 -75 217 0 102 67 233 147 288
78 53 132 71 218 71 86 0 142 -19 218 -71 l38 -26 84 83 83 83 -46 39 c-53 44
-165 101 -232 116 -81 19 -182 22 -260 7z"/>
<path d="M1097 1502 l-27 -28 26 -35 c46 -61 80 -137 98 -221 6 -24 11 -28 41
-28 33 0 35 2 35 33 -1 51 -45 164 -95 239 -25 37 -47 68 -48 68 -2 0 -15 -13
-30 -28z"/>
<path d="M1024 1429 l-21 -21 34 -50 c18 -28 41 -77 51 -109 16 -56 18 -59 50
-59 39 0 40 10 8 101 -22 63 -79 159 -94 159 -4 0 -17 -9 -28 -21z"/>
<path d="M963 1369 c-8 -8 -4 -21 16 -50 16 -21 34 -59 41 -84 9 -34 17 -45
32 -45 26 0 20 31 -25 119 -34 68 -45 79 -64 60z"/>
<path d="M1445 1317 c-82 -33 -89 -43 -134 -199 -53 -183 -43 -203 103 -203
114 0 153 20 185 94 33 77 31 81 -43 81 -58 0 -65 -2 -71 -22 -16 -56 -28 -78
-46 -78 -10 0 -20 3 -22 8 -5 7 56 222 68 242 3 5 16 10 27 10 18 0 20 -4 15
-32 -4 -18 -9 -43 -13 -56 -6 -23 -5 -23 62 -20 l68 3 14 54 c16 64 11 91 -20
110 -30 19 -155 24 -193 8z"/>
<path d="M1667 1132 c-31 -103 -59 -196 -63 -207 -7 -17 -1 -18 130 -12 192 8
185 1 250 226 50 172 43 181 -148 181 l-113 0 -56 -188z m206 101 c6 -10 -52
-204 -65 -220 -6 -7 -19 -13 -29 -13 -17 0 -17 2 0 63 51 176 52 177 71 177
10 0 21 -3 23 -7z"/>
<path d="M2041 1223 c-16 -54 -43 -143 -60 -199 -17 -56 -31 -104 -31 -108 0
-4 30 -6 66 -4 l66 3 53 179 c30 98 56 189 59 202 6 23 5 24 -58 24 l-65 0
-30 -97z"/>
<path d="M631 1280 c-71 -17 -122 -75 -129 -148 -6 -65 11 -114 53 -151 92
-80 229 -52 278 58 18 40 21 43 28 24 13 -35 49 -53 106 -53 l53 0 -10 -26
c-6 -15 -20 -40 -31 -56 -21 -29 -19 -63 4 -56 6 3 27 33 45 69 19 35 40 66
49 67 11 3 13 -2 8 -20 -11 -35 -35 -79 -61 -114 l-23 -31 23 -22 c12 -11 25
-21 29 -21 13 0 75 105 94 158 10 28 24 52 31 52 9 0 11 -7 7 -22 -16 -53 -50
-121 -81 -165 l-34 -47 28 -29 27 -28 27 33 c70 84 127 248 128 363 l0 50
-196 -3 c-158 -2 -194 0 -188 10 4 7 -2 4 -14 -6 -12 -11 -22 -26 -23 -35 0
-9 -7 1 -14 22 -37 99 -121 149 -214 127z"/>
<path d="M1252 848 c-7 -7 -12 -22 -12 -34 0 -24 26 -51 38 -40 4 4 -1 12 -11
17 -21 12 -22 38 -2 45 16 6 21 24 7 24 -4 0 -13 -5 -20 -12z"/>
<path d="M1580 849 c0 -7 -7 -17 -16 -24 -12 -8 -14 -18 -8 -36 8 -24 8 -24
15 6 5 24 7 25 8 8 2 -40 21 -24 21 17 0 22 -4 40 -10 40 -5 0 -10 -5 -10 -11z"/>
<path d="M1690 816 c0 -38 10 -49 33 -40 38 14 30 74 -9 74 -21 0 -24 -5 -24
-34z m40 -1 c0 -14 -4 -25 -10 -25 -5 0 -10 11 -10 25 0 14 5 25 10 25 6 0 10
-11 10 -25z"/>
<path d="M1407 833 c-2 -5 -1 -21 3 -38 l6 -30 5 33 c5 30 -4 53 -14 35z"/>
<path d="M2057 833 c-2 -5 -1 -21 3 -38 l6 -30 5 33 c5 30 -4 53 -14 35z"/>
<path d="M1293 814 c-8 -21 21 -51 32 -33 5 8 4 10 -3 5 -8 -5 -12 1 -11 16 0
13 3 17 6 11 2 -7 9 -13 14 -13 4 0 6 7 3 15 -8 20 -33 19 -41 -1z"/>
<path d="M1352 800 c0 -19 2 -27 5 -17 2 9 2 25 0 35 -3 9 -5 1 -5 -18z"/>
<path d="M1378 800 c2 -16 6 -30 8 -30 2 0 4 14 4 30 0 17 -4 30 -8 30 -5 0
-7 -13 -4 -30z"/>
<path d="M1440 800 c0 -16 2 -30 4 -30 2 0 6 14 8 30 3 17 1 30 -4 30 -4 0 -8
-13 -8 -30z"/>
<path d="M1477 823 c-12 -12 -7 -41 7 -46 19 -8 38 16 30 37 -6 16 -25 21 -37
9z m23 -25 c0 -16 -3 -19 -11 -11 -6 6 -8 16 -5 22 11 17 16 13 16 -11z"/>
<path d="M1617 823 c-11 -10 -8 -41 4 -49 6 -3 16 -1 22 6 9 10 9 11 -1 6 -7
-4 -15 -1 -18 9 -9 21 5 33 16 15 8 -13 10 -12 10 3 0 17 -20 23 -33 10z"/>
<path d="M1762 800 c0 -19 2 -27 5 -17 2 9 2 25 0 35 -3 9 -5 1 -5 -18z"/>
<path d="M1792 803 c4 -39 38 -41 38 -2 0 23 -5 29 -21 29 -16 0 -20 -5 -17
-27z m28 2 c0 -8 -4 -15 -10 -15 -5 0 -10 7 -10 15 0 8 5 15 10 15 6 0 10 -7
10 -15z"/>
<path d="M1846 814 c-3 -9 -3 -21 1 -27 4 -7 10 -2 14 13 l7 25 1 -27 c1 -18
-11 -38 -35 -63 -21 -22 -33 -43 -30 -52 3 -8 6 -17 6 -19 0 -2 9 -4 20 -4 17
0 20 7 20 44 0 35 4 45 20 49 28 7 29 77 1 77 -10 0 -22 -7 -25 -16z m-19
-136 c-3 -7 -5 -2 -5 12 0 14 2 19 5 13 2 -7 2 -19 0 -25z"/>
<path d="M1900 799 c0 -34 19 -31 21 4 1 17 3 15 9 -8 l8 -30 1 33 c1 26 -3
32 -19 32 -16 0 -20 -7 -20 -31z"/>
<path d="M1964 816 c-8 -22 3 -49 19 -43 6 2 12 14 12 27 0 27 -22 39 -31 16z
m26 -11 c0 -8 -4 -15 -10 -15 -5 0 -10 7 -10 15 0 8 5 15 10 15 6 0 10 -7 10
-15z"/>
<path d="M2014 819 c-3 -6 -1 -15 6 -19 7 -4 9 -13 5 -20 -5 -9 -4 -11 3 -6
16 10 15 36 0 36 -9 0 -8 4 2 10 9 6 10 10 3 10 -6 0 -15 -5 -19 -11z"/>
<path d="M2092 800 c0 -19 2 -27 5 -17 2 9 2 25 0 35 -3 9 -5 1 -5 -18z"/>
<path d="M2120 806 c0 -27 15 -42 25 -26 3 5 1 10 -4 10 -15 0 -14 27 2 33 7
3 5 6 -5 6 -13 1 -18 -7 -18 -23z"/>
<path d="M2157 818 c-2 -7 0 -21 5 -30 12 -23 40 -11 36 16 -3 23 -33 34 -41
14z m25 -30 c-9 -9 -12 -7 -12 12 0 19 3 21 12 12 9 -9 9 -15 0 -24z"/>
<path d="M1423 700 c0 -25 2 -35 4 -22 2 12 2 32 0 45 -2 12 -4 2 -4 -23z"/>
<path d="M1940 716 c0 -37 10 -56 30 -56 10 0 21 7 24 16 9 25 7 64 -4 64 -5
0 -10 -16 -10 -35 0 -19 -4 -35 -10 -35 -5 0 -10 16 -10 35 0 19 -4 35 -10 35
-5 0 -10 -11 -10 -24z"/>
<path d="M1266 696 c4 -16 2 -26 -4 -26 -6 0 -13 10 -15 23 -3 13 -5 8 -6 -15
-1 -37 -1 -37 19 -21 22 19 26 48 10 58 -7 4 -9 -2 -4 -19z"/>
<path d="M1301 706 c-16 -19 -7 -46 14 -46 22 0 30 29 13 46 -13 13 -16 13
-27 0z m24 -26 c-5 -8 -11 -8 -17 -2 -6 6 -7 16 -3 22 5 8 11 8 17 2 6 -6 7
-16 3 -22z"/>
<path d="M1472 690 c0 -17 4 -30 9 -30 11 0 12 47 1 54 -5 3 -9 -8 -10 -24z"/>
<path d="M1502 690 c0 -19 2 -27 5 -17 2 9 2 25 0 35 -3 9 -5 1 -5 -18z"/>
<path d="M1536 713 c-3 -4 -6 -17 -6 -30 0 -16 6 -23 20 -23 14 0 20 7 20 24
0 23 -22 41 -34 29z m24 -29 c0 -8 -4 -14 -10 -14 -5 0 -10 9 -10 21 0 11 5
17 10 14 6 -3 10 -13 10 -21z"/>
<path d="M1588 708 c-8 -20 0 -48 13 -48 5 0 9 -5 9 -11 0 -5 -5 -7 -12 -3 -7
4 -8 3 -4 -5 12 -19 36 7 36 40 0 34 -19 40 -21 7 -1 -18 -3 -16 -8 7 -5 24
-8 26 -13 13z"/>
<path d="M1644 706 c-9 -23 3 -46 23 -45 16 0 16 1 -2 9 -18 8 -18 9 -2 9 12
1 17 7 15 18 -4 22 -27 28 -34 9z m26 -6 c0 -5 -5 -10 -11 -10 -5 0 -7 5 -4
10 3 6 8 10 11 10 2 0 4 -4 4 -10z"/>
<path d="M1720 691 c0 -17 5 -31 10 -31 6 0 10 11 10 24 0 14 -4 28 -10 31 -6
4 -10 -7 -10 -24z"/>
<path d="M1752 690 c0 -19 2 -27 5 -17 2 9 2 25 0 35 -3 9 -5 1 -5 -18z"/>
<path d="M1864 706 c-9 -23 3 -46 23 -45 16 0 16 1 -2 9 -18 8 -18 9 -2 9 12
1 17 7 15 18 -4 22 -27 28 -34 9z m26 -6 c0 -5 -5 -10 -11 -10 -5 0 -7 5 -4
10 3 6 8 10 11 10 2 0 4 -4 4 -10z"/>
<path d="M2042 690 c0 -19 2 -27 5 -17 2 9 2 25 0 35 -3 9 -5 1 -5 -18z"/>
<path d="M2076 713 c-3 -4 -6 -17 -6 -30 0 -16 6 -23 20 -23 14 0 20 7 20 24
0 23 -22 41 -34 29z m16 -35 c-9 -9 -12 -7 -12 12 0 19 3 21 12 12 9 -9 9 -15
0 -24z"/>
<path d="M1350 685 c0 -14 2 -25 4 -25 2 0 6 11 8 25 3 14 1 25 -3 25 -5 0 -9
-11 -9 -25z"/>
<path d="M1452 685 c0 -16 2 -22 5 -12 2 9 2 23 0 30 -3 6 -5 -1 -5 -18z"/>
<path d="M1702 685 c0 -16 2 -22 5 -12 2 9 2 23 0 30 -3 6 -5 -1 -5 -18z"/>
<path d="M2010 685 c0 -14 2 -25 4 -25 2 0 6 11 8 25 3 14 1 25 -3 25 -5 0 -9
-11 -9 -25z"/>
<path d="M2128 685 c-3 -14 -1 -25 3 -25 5 0 9 11 9 25 0 14 -2 25 -4 25 -2 0
-6 -11 -8 -25z"/>
</g>
</svg>
