<?xml version="1.0" standalone="no"?>
<!DOCTYPE svg PUBLIC "-//W3C//DTD SVG 20010904//EN"
 "http://www.w3.org/TR/2001/REC-SVG-20010904/DTD/svg10.dtd">
<svg version="1.0" xmlns="http://www.w3.org/2000/svg"
 width="276.000000pt" height="182.000000pt" viewBox="0 0 276.000000 182.000000"
 preserveAspectRatio="xMidYMid meet">

<g transform="translate(0.000000,182.000000) scale(0.100000,-0.100000)"
fill="#000000" stroke="none">
<path d="M285 1623 c-47 -24 -73 -53 -90 -97 -14 -36 -15 -119 -13 -662 l3
-620 27 -41 c16 -24 44 -49 70 -62 44 -21 45 -21 1081 -21 l1038 0 -3 693 -3
692 -25 43 c-14 26 -42 54 -66 68 l-41 24 -974 0 c-868 -1 -977 -3 -1004 -17z
m1307 -428 l127 -170 -80 -3 c-43 -2 -79 -5 -79 -8 0 -2 25 -38 55 -78 30 -40
55 -76 55 -79 0 -4 -48 -7 -107 -7 l-108 1 -62 83 c-35 46 -63 86 -63 89 0 3
16 7 36 9 l36 3 -53 72 c-30 40 -57 72 -60 73 -4 0 -32 -33 -63 -74 l-56 -75
41 -3 41 -3 -66 -87 -67 -88 -109 0 c-61 0 -110 1 -110 3 0 2 27 39 59 83 l60
79 -80 3 c-44 2 -79 6 -77 11 2 4 59 83 128 175 l125 166 175 -2 174 -3 128
-170z m528 -415 c0 -7 -283 -10 -830 -10 -547 0 -830 3 -830 10 0 7 283 10
830 10 547 0 830 -3 830 -10z m-960 -110 l0 -40 -55 0 -55 0 0 40 0 40 55 0
55 0 0 -40z m960 -120 l0 -160 -48 0 c-26 0 -53 5 -59 11 -8 8 -13 8 -17 0 -4
-6 -25 -11 -47 -11 -73 0 -115 76 -90 161 18 59 70 81 134 54 15 -6 17 -1 17
49 l0 56 55 0 55 0 0 -160z m-1540 30 c4 -88 8 -105 22 -108 27 -5 38 31 35
110 -5 106 -4 108 59 108 l54 0 0 -115 c0 -113 -1 -115 -29 -147 -29 -32 -31
-33 -116 -33 -85 0 -87 1 -116 33 -28 32 -29 34 -29 148 l0 115 58 -3 57 -3 5
-105z m403 29 c34 -18 37 -28 37 -126 l0 -93 -55 0 -55 0 0 75 c0 60 -3 75
-15 75 -12 0 -15 -15 -15 -75 l0 -75 -55 0 -55 0 0 110 0 111 70 -2 c39 -1 73
1 77 5 10 10 42 7 66 -5z m422 -3 c17 -12 23 -12 47 0 37 19 71 18 99 -5 22
-17 24 -29 27 -115 l4 -96 -61 0 -61 0 0 75 c0 43 -4 75 -10 75 -6 0 -10 -32
-10 -75 l0 -76 -57 3 -58 3 -3 73 c-4 95 -22 93 -22 -3 l0 -75 -55 0 -55 0 0
110 0 110 50 0 c28 0 50 -5 50 -11 0 -5 10 -3 22 5 28 20 68 20 93 2z m402
-18 c17 -17 27 -41 30 -72 l6 -46 -74 0 c-59 -1 -70 -3 -55 -12 11 -6 39 -8
67 -5 46 6 49 5 49 -16 0 -38 -19 -47 -98 -47 -71 0 -75 1 -108 34 -28 28 -34
41 -34 78 0 78 54 122 143 115 35 -3 56 -11 74 -29z m-647 -88 l0 -110 -55 0
-55 0 0 110 0 110 55 0 55 0 0 -110z"/>
<path d="M1226 1275 l-56 -75 115 0 c94 0 114 3 108 13 -20 33 -99 136 -104
137 -4 0 -32 -34 -63 -75z"/>
<path d="M1970 506 c0 -30 4 -36 21 -36 17 0 20 5 17 32 -2 22 -9 34 -20 36
-15 3 -18 -4 -18 -32z"/>
<path d="M1707 554 c-13 -13 -7 -24 14 -24 11 0 19 5 17 12 -5 14 -22 21 -31
12z"/>
</g>
</svg>
